<?xml version="1.0" standalone="no"?>
<!DOCTYPE svg PUBLIC "-//W3C//DTD SVG 20010904//EN"
 "http://www.w3.org/TR/2001/REC-SVG-20010904/DTD/svg10.dtd">
<svg version="1.0" xmlns="http://www.w3.org/2000/svg"
 width="512.000000pt" height="512.000000pt" viewBox="0 0 512.000000 512.000000"
 preserveAspectRatio="xMidYMid meet">
<metadata>
Created by potrace 1.11, written by Peter Selinger 2001-2013
</metadata>
<g transform="translate(0.000000,512.000000) scale(0.100000,-0.100000)"
fill="#000000" stroke="none">
<path d="M482 4609 c-25 -9 -39 -29 -46 -64 -12 -55 -16 -75 -20 -92 -3 -10
-39 -171 -81 -358 -42 -187 -87 -387 -100 -445 -13 -58 -26 -116 -29 -130 -2
-14 -11 -56 -20 -93 -14 -59 -16 -171 -16 -867 l0 -800 46 -202 c25 -112 48
-214 51 -228 2 -13 13 -60 23 -105 10 -45 21 -92 23 -105 3 -14 24 -106 46
-205 23 -99 51 -222 63 -273 33 -147 10 -137 313 -137 l257 0 19 24 c19 23 19
71 19 2031 0 1955 0 2008 -19 2031 -19 24 -19 24 -265 24 -135 0 -254 -3 -264
-6z m396 -139 c9 0 12 -389 12 -1910 l0 -1910 -42 -1 c-121 -3 -273 2 -279 9
-4 4 -44 171 -89 372 -45 201 -90 403 -101 450 -11 47 -26 117 -35 155 -8 39
-18 79 -21 90 -3 11 -7 380 -8 820 -1 792 0 827 29 940 9 35 20 82 61 270 26
116 49 221 51 235 3 14 7 31 9 38 5 14 45 191 81 359 l18 82 56 3 c44 2 169 2
258 -2z"/>
<path d="M1334 4130 c-12 -5 -25 -14 -29 -20 -10 -16 -10 -3059 0 -3089 8 -26
43 -42 77 -36 30 6 499 223 515 238 15 15 17 28 48 277 8 69 17 139 19 155 2
17 7 57 11 90 3 33 8 71 10 85 2 14 6 50 10 80 3 30 8 71 10 90 3 19 7 55 10
80 3 25 8 61 10 80 3 19 7 55 10 80 3 25 7 61 10 80 3 19 7 58 10 85 3 28 8
61 10 75 2 14 6 50 10 80 3 30 8 71 10 90 3 19 14 112 25 205 11 94 23 186 25
206 3 20 7 54 10 75 2 21 7 58 10 81 3 24 7 62 10 85 18 150 27 222 31 242 2
10 6 51 10 90 3 39 8 74 11 78 11 20 -27 53 -100 88 -377 178 -716 332 -737
334 -14 2 -35 0 -46 -4z m431 -295 l326 -150 -6 -60 c-3 -33 -10 -96 -16 -140
-5 -44 -12 -96 -14 -115 -4 -34 -9 -73 -19 -155 -17 -130 -26 -206 -31 -255
-4 -30 -8 -66 -10 -80 -2 -14 -7 -50 -10 -80 -4 -30 -9 -68 -11 -85 -2 -16 -6
-52 -9 -80 -3 -27 -10 -86 -16 -130 -6 -44 -12 -93 -14 -110 -2 -16 -6 -50 -9
-75 -3 -25 -8 -65 -11 -90 -3 -25 -10 -81 -16 -125 -13 -105 -17 -139 -24
-205 -3 -30 -8 -66 -10 -80 -2 -14 -7 -50 -10 -80 -4 -30 -8 -66 -10 -80 -2
-14 -7 -47 -10 -75 -3 -27 -7 -67 -10 -87 -3 -21 -7 -57 -10 -80 -3 -24 -8
-59 -11 -79 l-5 -37 -186 -86 c-102 -47 -188 -84 -192 -82 -5 3 -7 2841 -2
2854 2 5 -6 9 346 -153z"/>
<path d="M2563 3675 c-35 -15 -32 -5 -58 -220 -16 -130 -20 -169 -30 -247 -3
-24 -8 -59 -10 -78 -2 -19 -7 -60 -11 -90 -3 -30 -8 -66 -9 -80 -5 -41 -15
-122 -20 -160 -3 -19 -7 -55 -10 -80 -20 -168 -46 -381 -50 -410 -2 -19 -9
-75 -15 -125 -6 -49 -13 -101 -15 -115 -2 -14 -6 -52 -10 -84 -3 -33 -8 -74
-10 -93 -11 -78 -14 -101 -20 -153 -4 -30 -8 -66 -10 -80 -2 -14 -7 -56 -11
-95 -3 -38 -8 -73 -10 -76 -8 -14 33 -51 57 -51 13 0 69 21 124 47 55 26 150
69 210 97 343 157 319 140 330 233 6 53 8 73 24 200 6 44 13 103 16 130 4 28
8 61 10 75 2 14 7 50 10 80 6 52 40 336 50 410 3 19 11 91 20 160 8 69 17 139
19 155 2 17 6 57 10 90 4 33 9 76 12 95 23 161 22 199 -2 214 -11 6 -80 39
-154 74 -74 35 -162 76 -195 92 -33 15 -82 38 -110 50 -27 12 -61 28 -75 35
-21 11 -31 11 -57 0z m360 -270 l128 -59 -5 -65 c-3 -37 -12 -113 -20 -171 -8
-58 -17 -130 -21 -160 -3 -30 -8 -66 -10 -80 -3 -22 -8 -67 -20 -170 -2 -14
-6 -46 -9 -72 -3 -27 -8 -69 -11 -95 -4 -27 -8 -59 -10 -73 -2 -14 -6 -50 -10
-80 -12 -106 -15 -126 -29 -240 -8 -63 -18 -136 -21 -162 -13 -117 -17 -144
-21 -158 -4 -12 -387 -196 -454 -218 -10 -4 -11 8 -6 54 6 54 50 412 61 494 3
19 7 58 10 85 3 28 7 66 10 85 3 19 7 60 10 90 3 30 8 66 10 80 5 24 10 69 21
160 6 57 13 116 19 160 7 49 15 117 20 165 3 22 9 74 14 115 10 78 17 131 26
215 3 28 8 61 10 75 2 14 7 52 11 85 3 33 8 63 10 67 2 3 39 -11 82 -31 42
-21 135 -64 205 -96z"/>
<path d="M3494 3260 c-31 -12 -44 -33 -49 -86 -3 -27 -7 -62 -10 -79 -2 -16
-7 -50 -10 -75 -10 -86 -55 -455 -59 -485 -3 -16 -8 -61 -12 -100 -4 -38 -8
-72 -9 -75 -4 -16 -21 -160 -29 -245 -4 -33 -8 -69 -11 -80 -2 -11 -7 -46 -10
-78 -8 -65 9 -97 50 -97 22 0 192 75 498 220 61 29 73 49 81 128 7 70 33 280
51 422 2 19 7 60 11 90 3 30 8 71 10 90 3 19 7 51 9 70 2 19 6 54 9 78 3 24 1
53 -5 64 -6 11 -48 37 -92 58 -45 20 -107 49 -137 63 -30 14 -102 47 -160 75
-74 34 -112 47 -126 42z m139 -178 c34 -16 107 -50 162 -76 l101 -47 -18 -142
c-9 -78 -20 -167 -23 -197 -4 -30 -8 -66 -10 -80 -8 -55 -18 -136 -20 -160 -5
-45 -17 -143 -20 -159 -2 -9 -4 -20 -4 -24 -1 -5 -31 -22 -68 -39 -36 -16
-112 -51 -169 -78 -134 -63 -147 -67 -141 -43 3 10 8 49 12 86 3 37 8 76 10
85 1 9 6 44 9 77 4 33 9 77 11 98 3 20 7 56 10 80 3 23 7 58 10 77 3 19 7 55
10 80 3 25 8 61 10 80 6 46 15 116 20 165 25 217 30 245 40 245 3 0 33 -13 68
-28z"/>
<path d="M4332 2864 c-14 -9 -22 -30 -27 -71 -3 -32 -8 -71 -11 -88 -20 -152
-45 -367 -46 -398 0 -42 23 -68 56 -61 18 3 204 88 454 206 68 32 127 58 132
58 19 0 60 44 60 64 0 26 -20 46 -70 69 -19 8 -75 34 -125 57 -277 129 -372
172 -386 175 -9 2 -26 -3 -37 -11z m337 -245 l94 -44 -74 -35 c-41 -18 -130
-60 -198 -92 l-123 -58 7 67 c4 37 8 76 10 87 2 12 6 48 10 81 3 33 8 72 11
87 l5 27 82 -39 c45 -20 124 -57 176 -81z"/>
</g>
</svg>
